Coordinates
version=1
nRows=32
nColumns=22
inDegrees=yes

Units are S.I. units (second, meters, Newtons, ...)
If the header above contains a line with 'inDegrees', this indicates whether rotational values are in degrees (yes) or radians (no).

endheader
time	pelvis_tilt	pelvis_list	pelvis_rotation	pelvis_tx	pelvis_ty	pelvis_tz	hip_flexion_r	hip_adduction_r	hip_rotation_r	knee_angle_r	ankle_angle_r	subtalar_angle_r	hip_flexion_l	hip_adduction_l	hip_rotation_l	knee_angle_l	ankle_angle_l	subtalar_angle_l	lumbar_extension	lumbar_bending	lumbar_rotation
      1.30000000	      2.83504877	     -0.77297017	      2.15465029	      0.68301552	      1.08397523	     -0.32455528	     -0.78327494	      1.98158595	     -5.28158628	    -12.84262341	     10.64810488	     -5.01493767	     -0.44211948	     -1.92286026	     -1.81755793	    -15.16129082	     13.10179195	      2.26700084	     -4.66398020	     -0.36740793	     -4.28649132
      1.31000000	      2.81516638	     -0.76961220	      2.09123487	      0.68197851	      1.08391126	     -0.32340404	     -0.61334571	      2.03955670	     -5.17772936	    -12.99186337	     10.61577411	     -5.16714798	     -0.18995849	     -1.97491781	     -1.83296225	    -15.48460296	     13.09981004	      2.31709556	     -4.77901844	     -0.36926664	     -4.31440286
      1.32000000	      2.78748575	     -0.76721625	      2.01674220	      0.68086994	      1.08383315	     -0.32220154	     -0.42996732	      2.09899998	     -5.06785039	    -13.14193061	     10.58472596	     -5.31067335	      0.08328707	     -2.02929568	     -1.85065206	    -15.82648749	     13.09219977	      2.36664538	     -4.89482667	     -0.37017103	     -4.32182665
      1.33000000	      2.75506472	     -0.76528858	      1.93351738	      0.67969718	      1.08375218	     -0.32094354	     -0.24025396	      2.16021227	     -4.95867726	    -13.28747810	     10.55247834	     -5.43577315	      0.37060450	     -2.08667931	     -1.86908394	    -16.17971323	     13.07531076	      2.41569554	     -5.01216549	     -0.37187892	     -4.31299636
      1.34000000	      2.70356377	     -0.76398746	      1.84223674	      0.67844827	      1.08365348	     -0.31964263	     -0.02627236	      2.22207086	     -4.84454417	    -13.43261712	     10.51081231	     -5.55316041	      0.68493721	     -2.14498050	     -1.87894568	    -16.53877929	     13.05477493	      2.47312012	     -5.11616791	     -0.37284678	     -4.30054172
      1.35000000	      2.65413342	     -0.76772574	      1.75320404	      0.67714736	      1.08357186	     -0.31831369	      0.17417223	      2.28974687	     -4.75850069	    -13.55026119	     10.46455236	     -5.64303225	      1.00937381	     -2.21233121	     -1.89274575	    -16.91340338	     13.01862360	      2.52906340	     -5.22726247	     -0.37044716	     -4.26926300
      1.36000000	      2.59382328	     -0.77179224	      1.67069746	      0.67578668	      1.08349947	     -0.31697583	      0.37701995	      2.35777456	     -4.69525723	    -13.64386098	     10.40589103	     -5.72130848	      1.35632818	     -2.28152273	     -1.89932825	    -17.29894749	     12.96591188	      2.59180296	     -5.33028474	     -0.36743792	     -4.23815036
      1.37000000	      2.54097034	     -0.78402305	      1.59975153	      0.67439101	      1.08347248	     -0.31564217	      0.55264101	      2.43498184	     -4.67247685	    -13.69439325	     10.32319918	     -5.78270061	      1.70666611	     -2.36268427	     -1.90719099	    -17.69666457	     12.87757068	      2.65094513	     -5.44277452	     -0.35459434	     -4.19483462
      1.38000000	      2.44054422	     -0.78253416	      1.54209187	      0.67287566	      1.08340143	     -0.31432448	      0.79243853	      2.49782513	     -4.64148522	    -13.76105578	     10.22944996	     -5.86939434	      2.12665558	     -2.42521811	     -1.87897977	    -18.11210165	     12.79873170	      2.73889871	     -5.51165692	     -0.35537083	     -4.19230485
      1.39000000	      2.34336357	     -0.78259401	      1.50448603	      0.67130867	      1.08337924	     -0.31303287	      1.01708592	      2.56371155	     -4.64780894	    -13.79679140	     10.10914848	     -5.95532958	      2.55944366	     -2.49104842	     -1.84309610	    -18.54310518	     12.67853833	      2.83105768	     -5.58629195	     -0.35447100	     -4.18626111
      1.40000000	      2.22638929	     -0.77348581	      1.48720579	      0.66964816	      1.08336508	     -0.31178324	      1.26994104	      2.61957897	     -4.67465544	    -13.83508666	      9.97361145	     -6.05459114	      3.03557563	     -2.54521640	     -1.78652637	    -18.99630165	     12.53375021	      2.94221924	     -5.64569844	     -0.36177909	     -4.19163721
      1.41000000	      2.09116549	     -0.75299298	      1.48941257	      0.66788284	      1.08335450	     -0.31058430	      1.55587211	      2.66210444	     -4.71788470	    -13.88704424	      9.82874184	     -6.16829882	      3.55547641	     -2.58428673	     -1.70920428	    -19.47457643	     12.37362839	      3.07870896	     -5.69333507	     -0.37921935	     -4.20811196
      1.42000000	      1.94893772	     -0.72283846	      1.50839466	      0.66601366	      1.08335973	     -0.30942969	      1.86636829	      2.69314735	     -4.77465931	    -13.95950994	      9.67321473	     -6.28855598	      4.10530571	     -2.60951012	     -1.60554571	    -19.97613665	     12.20039864	      3.24137398	     -5.74184751	     -0.40665621	     -4.23161502
      1.43000000	      1.79135770	     -0.68487450	      1.54371534	      0.66401953	      1.08335466	     -0.30834165	      2.21652929	      2.71158827	     -4.84387909	    -14.06155777	      9.51207826	     -6.41817620	      4.69839210	     -2.61944600	     -1.46680317	    -20.51101127	     12.02862019	      3.44375330	     -5.78394076	     -0.43893317	     -4.25903936
      1.44000000	      1.63433451	     -0.63749381	      1.58423993	      0.66191447	      1.08334624	     -0.30729752	      2.58603739	      2.71666738	     -4.91566459	    -14.19032312	      9.35692423	     -6.54823838	      5.31497264	     -2.61499537	     -1.31175532	    -21.08180763	     11.87987199	      3.68554212	     -5.83642189	     -0.47970059	     -4.28396702
      1.45000000	      1.47774341	     -0.58912667	      1.62793812	      0.65968886	      1.08332241	     -0.30630261	      2.97495451	      2.71646062	     -4.98708857	    -14.34340823	      9.20333139	     -6.67498946	      5.95529227	     -2.60238417	     -1.12846993	    -21.69667462	     11.76611617	      3.97082455	     -5.89868734	     -0.52068884	     -4.30002409
      1.46000000	      1.32421341	     -0.53817622	      1.65887188	      0.65735043	      1.08326954	     -0.30534660	      3.37633401	      2.70985661	     -5.04085469	    -14.51402194	      9.06330397	     -6.80027340	      6.61602883	     -2.58278705	     -0.94719865	    -22.37016861	     11.71770068	      4.30563925	     -5.97177359	     -0.56203839	     -4.29494298
      1.47000000	      1.18936755	     -0.50488483	      1.68685931	      0.65489539	      1.08320768	     -0.30443623	      3.77183275	      2.71884624	     -5.08937820	    -14.69771164	      8.91327885	     -6.91268141	      7.27579272	     -2.57282208	     -0.72408848	    -23.10594520	     11.72117019	      4.64991301	     -6.07107046	     -0.58332355	     -4.27686503
      1.48000000	      1.06092574	     -0.46286294	      1.68007707	      0.65234880	      1.08310605	     -0.30353600	      4.16767361	      2.71751245	     -5.09269119	    -14.88472879	      8.78200986	     -7.03076491	      7.94628342	     -2.55542096	     -0.54449445	    -23.92906837	     11.80530715	      5.04049448	     -6.17696203	     -0.61691796	     -4.22155707
      1.49000000	      0.96105180	     -0.44405463	      1.66011517	      0.64971521	      1.08299849	     -0.30267363	      4.53471227	      2.73933057	     -5.08625793	    -15.06467185	      8.64347998	     -7.13942117	      8.60200662	     -2.55913059	     -0.35710953	    -24.85071109	     11.96309810	      5.40100685	     -6.31174004	     -0.62392767	     -4.14645778
      1.50000000	      0.89868239	     -0.45991725	      1.61650976	      0.64701561	      1.08290060	     -0.30183104	      4.85224506	      2.80034123	     -5.04279344	    -15.21815373	      8.50145179	     -7.23353161	      9.22571255	     -2.59870902	     -0.17276199	    -25.88128538	     12.21302717	      5.68631203	     -6.48019014	     -0.59196373	     -4.04179418
      1.51000000	      0.85409623	     -0.47125010	      1.54526306	      0.64426705	      1.08280017	     -0.30100254	      5.14481119	      2.85540336	     -4.98587301	    -15.35630983	      8.36117065	     -7.32476913	      9.83222348	     -2.63729096	     -0.02805409	    -27.02746271	     12.51051423	      5.93200506	     -6.65209879	     -0.57068634	     -3.91813958
      1.52000000	      0.81675471	     -0.47642390	      1.45430228	      0.64148402	      1.08269397	     -0.30020738	      5.41420057	      2.89962633	     -4.94115163	    -15.46211411	      8.21629042	     -7.41214572	     10.42541955	     -2.67264352	      0.07889600	    -28.28721945	     12.83521266	      6.11823801	     -6.81137561	     -0.56180727	     -3.78935316
      1.53000000	      0.81784395	     -0.51150150	      1.34153216	      0.63867935	      1.08264067	     -0.29942569	      5.62069441	      2.97791920	     -4.87035831	    -15.52620161	      8.06565184	     -7.47128928	     10.95551012	     -2.73487691	      0.20261522	    -29.64269019	     13.19684882	      6.15811159	     -6.99019742	     -0.52241288	     -3.64264953
      1.54000000	      0.84608637	     -0.56638754	      1.21304878	      0.63588726	      1.08264103	     -0.29866714	      5.75979351	      3.07742660	     -4.78629532	    -15.52028418	      7.89121396	     -7.49716711	     11.42820049	     -2.81670792	      0.32078559	    -31.08407634	     13.54842281	      6.07684529	     -7.16727487	     -0.46525939	     -3.49909699
      1.55000000	      0.90057714	     -0.63887728	      1.06789012	      0.63309755	      1.08270117	     -0.29793745	      5.84231943	      3.19360663	     -4.69285436	    -15.46340397	      7.70610567	     -7.49086237	     11.83179362	     -2.90774818	      0.46313266	    -32.58575546	     13.87516938	      5.91696952	     -7.34258461	     -0.39307680	     -3.34355382
      1.56000000	      0.94193774	     -0.71749517	      0.91436657	      0.63031335	      1.08276056	     -0.29724362	      5.91258203	      3.30992174	     -4.61307421	    -15.35967396	      7.50969734	     -7.44851386	     12.21180436	     -3.00116539	      0.60155946	    -34.14052405	     14.14044238	      5.68596076	     -7.46721211	     -0.31845881	     -3.20679009
      1.57000000	      0.97615071	     -0.80643728	      0.75237210	      0.62753803	      1.08282120	     -0.29659452	      5.96597469	      3.42990220	     -4.55019795	    -15.21365992	      7.32879455	     -7.34837144	     12.55475626	     -3.10009756	      0.73892937	    -35.72478570	     14.33367347	      5.37592740	     -7.54781732	     -0.23623857	     -3.08565908
      1.58000000	      1.07843170	     -0.92484943	      0.57676337	      0.62481873	      1.08301331	     -0.29596376	      5.89600110	      3.58259537	     -4.45677743	    -14.97915269	      7.12312859	     -7.25833006	     12.75940132	     -3.22648837	      0.88921809	    -37.29439848	     14.46516410	      5.17531269	     -7.67028195	     -0.12417190	     -2.95356172
      1.59000000	      1.12607627	     -1.05504239	      0.40004192	      0.62204347	      1.08312739	     -0.29539233	      5.88371201	      3.73710260	     -4.38206682	    -14.73821783	      6.86610792	     -7.05820532	     12.97536722	     -3.34960801	      1.07040127	    -38.85115861	     14.53454388	      4.84951351	     -7.70570366	     -0.00265915	     -2.84960904
      1.60000000	      1.20171324	     -1.19506976	      0.21462740	      0.61929813	      1.08329078	     -0.29486093	      5.80512154	      3.90096972	     -4.28190030	    -14.43596531	      6.63545486	     -6.87652073	     13.09974628	     -3.48134500	      1.24393291	    -40.36234760	     14.47843353	      4.62283563	     -7.74233146	      0.12804188	     -2.75189195
      1.61000000	      1.25766113	     -1.34921840	      0.03035430	      0.61654710	      1.08340949	     -0.29439949	      5.72958589	      4.07473878	     -4.17686145	    -14.10167155	      6.42109172	     -6.60744118	     13.18927101	     -3.61790104	      1.43092378	    -41.81916413	     14.34093107	      4.37262144	     -7.73106463	      0.27585498	     -2.66986900
